<svg xmlns="http://www.w3.org/2000/svg" width="374.985" height="144.3" viewBox="0 0 374.985 144.3">
  <path id="Path_200" data-name="Path 200" d="M76.05-106.47c-14.04,0-25.35,4.485-32.955,13.65v-12.09H14.04V37.83H44.46V-11.115C52.26-2.535,62.985,1.56,76.05,1.56c29.445,0,52.26-21.06,52.26-54.015S105.5-106.47,76.05-106.47ZM70.785-23.4c-15.21,0-26.715-10.92-26.715-29.055S55.575-81.51,70.785-81.51,97.5-70.59,97.5-52.455,86-23.4,70.785-23.4ZM223.86-104.91v51.87c0,19.305-10.14,28.275-24.18,28.275-13.455,0-21.255-7.8-21.255-25.35V-104.91h-30.42v59.28c0,32.37,18.525,47.19,44.85,47.19,12.87,0,24.57-4.875,32.565-14.04V0h28.86V-104.91Zm136.11,0v12.09c-7.605-9.165-18.72-13.65-32.76-13.65-29.64,0-52.455,21.06-52.455,54.015S297.57,1.56,327.21,1.56c12.87,0,23.79-4.1,31.395-12.675V37.83h30.42V-104.91Zm-27.5,81.51c-15.21,0-26.91-10.92-26.91-29.055s11.7-29.055,26.91-29.055c15.015,0,26.715,10.92,26.715,29.055S347.49-23.4,332.475-23.4Z" transform="translate(-14.04 106.47)" fill="#2c2c2c"/>
</svg>
