<svg xmlns="http://www.w3.org/2000/svg" xmlns:xlink="http://www.w3.org/1999/xlink" width="400" height="86" viewBox="0 0 400 86">
  <defs>
    <clipPath id="clip-Custom_Size_1">
      <rect width="400" height="86"/>
    </clipPath>
  </defs>
  <g id="Custom_Size_1" data-name="Custom Size – 1" clip-path="url(#clip-Custom_Size_1)">
    <g id="alt2" transform="translate(0 0)">
      <path id="Path_214" data-name="Path 214" d="M15.158,0H70.842A15.158,15.158,0,0,1,86,15.158V70.842A15.158,15.158,0,0,1,70.842,86H15.158A15.158,15.158,0,0,1,0,70.842V15.158A15.158,15.158,0,0,1,15.158,0Z" transform="translate(0 0)"/>
      <path id="Path_213" data-name="Path 213" d="M33.646-174.174a7.019,7.019,0,0,0-5.675,2.351v-2.082h-5v24.58h5.238v-8.428a7.013,7.013,0,0,0,5.44,2.183c5.07,0,9-3.627,9-9.3S38.717-174.174,33.646-174.174Zm-.906,14.3c-2.619,0-4.6-1.88-4.6-5s1.981-5,4.6-5,4.6,1.88,4.6,5S35.359-159.869,32.74-159.869ZM59.1-173.905v8.932c0,3.324-1.746,4.869-4.164,4.869-2.317,0-3.66-1.343-3.66-4.365v-9.436H46.037V-163.7c0,5.574,3.189,8.126,7.723,8.126a7.309,7.309,0,0,0,5.608-2.418v2.149h4.97v-18.065Zm23.438,0v2.082a6.949,6.949,0,0,0-5.641-2.351c-5.1,0-9.033,3.627-9.033,9.3s3.929,9.3,9.033,9.3a6.941,6.941,0,0,0,5.406-2.183v8.428H87.54v-24.58ZM77.8-159.869c-2.619,0-4.634-1.88-4.634-5s2.015-5,4.634-5c2.586,0,4.6,1.88,4.6,5S80.388-159.869,77.8-159.869Z" transform="translate(-12.254 202.645)" fill="#fff"/>
      <path id="Path_215" data-name="Path 215" d="M7.314-71.9a3.641,3.641,0,0,0-2.259.7l.413.743A2.765,2.765,0,0,1,7.2-71.045c.98,0,1.465.485,1.465,1.32v.2H7.1c-1.629,0-2.2.723-2.2,1.6,0,.949.784,1.609,2.022,1.609A2.03,2.03,0,0,0,8.717-67.1v.722h.939v-3.3C9.656-71.179,8.81-71.9,7.314-71.9Zm-.227,4.817c-.753,0-1.207-.34-1.207-.887,0-.464.279-.846,1.259-.846H8.665v.763A1.585,1.585,0,0,1,7.087-67.084Zm4.9-5.818a.648.648,0,0,0,.477-.186.648.648,0,0,0,.193-.474.642.642,0,0,0-.2-.456.642.642,0,0,0-.468-.173.652.652,0,0,0-.472.184.652.652,0,0,0-.2.466.644.644,0,0,0,.2.462A.644.644,0,0,0,11.987-72.9Zm-.5,6.52h.99V-71.85h-.99ZM24.531-71.85,22.9-67.476l-1.62-4.374h-.836L18.8-67.5,17.207-71.85h-.938L18.3-66.382h.949l1.6-4.147,1.578,4.147h.949l2.042-5.467Zm4.074,5.529a2.72,2.72,0,0,0,2.837-2.8A2.712,2.712,0,0,0,28.605-71.9a2.72,2.72,0,0,0-2.847,2.785A2.729,2.729,0,0,0,28.605-66.32Zm0-.867a1.81,1.81,0,0,1-1.847-1.929,1.8,1.8,0,0,1,1.847-1.919,1.794,1.794,0,0,1,1.836,1.919A1.8,1.8,0,0,1,28.605-67.187Zm5.158-3.745v-.918h-.949v5.467h.991v-2.723a1.631,1.631,0,0,1,1.723-1.847,1.748,1.748,0,0,1,.227.011v-.96a2.088,2.088,0,0,0-1.992.97Zm7.387,4.549h1.217L39.84-69.591l2.3-2.259h-1.2l-2.981,2.723v-4.91h-.99v7.654h.99v-1.5L39.1-68.931Zm2.321-5.952v.485h-.929v.815h.928v4.653h.99v-4.653h1.568v-.815H44.44v-.475c0-.629.3-.959.887-.959a1.282,1.282,0,0,1,.763.258l.3-.753a1.847,1.847,0,0,0-1.114-.32A1.644,1.644,0,0,0,43.471-72.335Zm3.5-1.7v7.654h.99v-7.654Zm5.22,7.716a2.72,2.72,0,0,0,2.837-2.8A2.712,2.712,0,0,0,52.188-71.9a2.721,2.721,0,0,0-2.847,2.785A2.729,2.729,0,0,0,52.188-66.32Zm0-.867a1.81,1.81,0,0,1-1.847-1.929,1.8,1.8,0,0,1,1.847-1.919,1.794,1.794,0,0,1,1.836,1.919A1.8,1.8,0,0,1,52.188-67.187Zm11.44-4.663L62-67.476l-1.62-4.374h-.836L57.892-67.5,56.3-71.85h-.939L57.4-66.382h.949l1.6-4.147,1.578,4.147h.949l2.042-5.467Zm3.384,5.53c1.455,0,2.362-.629,2.362-1.62,0-2.125-3.466-1.073-3.466-2.362,0-.433.423-.753,1.289-.753a2.855,2.855,0,0,1,1.578.433l.423-.784a3.978,3.978,0,0,0-1.991-.495c-1.4,0-2.28.66-2.28,1.64,0,2.177,3.456,1.114,3.456,2.342,0,.464-.382.743-1.3.743a3.513,3.513,0,0,1-1.919-.567l-.412.784A3.944,3.944,0,0,0,67.011-66.32Z" transform="translate(6.089 128.803)" fill="#fff"/>
    </g>
    <path id="Path_217" data-name="Path 217" d="M13.679,5.5h2.286L9.042-9.736H6.887L-.014,5.5H2.228L3.9,1.694H12ZM4.666-.048,7.953-7.515,11.241-.048ZM18.229,5.5h2.177V-9.736H18.229ZM50.3-9.736l-4.2,12.453-4.2-12.453h-2L35.6,2.652,31.487-9.736H29.245L34.339,5.5h2.329l4.158-12.17L44.984,5.5H47.27L52.364-9.736Zm8.49,15.37a5.741,5.741,0,0,0,5.987-5.9,5.724,5.724,0,0,0-5.987-5.878A5.741,5.741,0,0,0,52.778-.266,5.759,5.759,0,0,0,58.787,5.634Zm0-1.829a3.82,3.82,0,0,1-3.9-4.071,3.8,3.8,0,0,1,3.9-4.049A3.786,3.786,0,0,1,62.662-.266,3.8,3.8,0,0,1,58.787,3.805ZM69.672-4.1V-6.035h-2V5.5h2.09V-.244c0-2.525,1.393-3.9,3.636-3.9a3.69,3.69,0,0,1,.479.022V-6.144C71.849-6.144,70.412-5.447,69.672-4.1ZM85.259,5.5h2.569L82.494-1.267l4.855-4.768H84.824L78.532-.287V-10.65h-2.09V5.5h2.09V2.347L80.927.126Zm4.9-12.561v1.023H88.2v1.72h1.959V5.5h2.09V-4.315h3.309v-1.72H92.2v-1c0-1.328.631-2.025,1.872-2.025a2.706,2.706,0,0,1,1.611.544l.631-1.589a3.9,3.9,0,0,0-2.351-.675A3.468,3.468,0,0,0,90.157-7.058Zm7.38-3.592V5.5h2.09V-10.65ZM108.553,5.634a5.741,5.741,0,0,0,5.987-5.9,5.723,5.723,0,0,0-5.987-5.878,5.741,5.741,0,0,0-6.009,5.878A5.759,5.759,0,0,0,108.553,5.634Zm0-1.829a3.82,3.82,0,0,1-3.9-4.071,3.8,3.8,0,0,1,3.9-4.049,3.786,3.786,0,0,1,3.875,4.049A3.8,3.8,0,0,1,108.553,3.805ZM132.7-6.035,129.257,3.2l-3.418-9.231h-1.763l-3.483,9.187-3.353-9.187h-1.981L119.547,5.5h2l3.374-8.752L128.255,5.5h2l4.311-11.538Zm7.141,11.669c3.07,0,4.985-1.328,4.985-3.418,0-4.485-7.315-2.264-7.315-4.985,0-.914.893-1.589,2.721-1.589a6.026,6.026,0,0,1,3.331.914l.893-1.655a8.4,8.4,0,0,0-4.2-1.045c-2.961,0-4.811,1.393-4.811,3.461,0,4.593,7.293,2.351,7.293,4.942,0,.98-.805,1.567-2.743,1.567a7.414,7.414,0,0,1-4.049-1.2l-.871,1.655A8.328,8.328,0,0,0,139.837,5.634Zm8.12-2.983a1.424,1.424,0,0,0-1.459,1.48,1.385,1.385,0,0,0,.914,1.35l-.805,3.244h1.372L149,5.7a4.4,4.4,0,0,0,.37-1.567A1.4,1.4,0,0,0,147.957,2.652Zm26.8,2.852-.022-15.239h-1.785L166.679.975,160.323-9.736h-1.785V5.5h2.09V-5.534l5.508,9.187h1L172.645-5.6l.022,11.1Zm8.469-11.647a7.684,7.684,0,0,0-4.768,1.48l.871,1.567a5.835,5.835,0,0,1,3.657-1.241c2.068,0,3.091,1.023,3.091,2.787v.414h-3.309c-3.44,0-4.637,1.524-4.637,3.374,0,2,1.655,3.4,4.267,3.4a4.283,4.283,0,0,0,3.788-1.655V5.5h1.981V-1.463C188.167-4.62,186.381-6.144,183.225-6.144Zm-.479,10.167c-1.589,0-2.547-.718-2.547-1.872,0-.98.588-1.785,2.656-1.785h3.222V1.977A3.346,3.346,0,0,1,182.746,4.023ZM200.9-10.65v6.357a4.909,4.909,0,0,0-4.027-1.85A5.6,5.6,0,0,0,191.04-.266a5.618,5.618,0,0,0,5.834,5.9,4.875,4.875,0,0,0,4.115-1.959V5.5h2V-10.65ZM197.049,3.805a3.82,3.82,0,0,1-3.9-4.071,3.8,3.8,0,0,1,3.9-4.049,3.8,3.8,0,0,1,3.875,4.049A3.816,3.816,0,0,1,197.049,3.805ZM217.382-.2a5.563,5.563,0,0,0-5.7-5.943,5.651,5.651,0,0,0-5.791,5.878c0,3.44,2.482,5.9,6.2,5.9a5.791,5.791,0,0,0,4.55-1.872l-1.154-1.35a4.308,4.308,0,0,1-3.331,1.393,3.908,3.908,0,0,1-4.18-3.374h9.361C217.36.235,217.382-.026,217.382-.2Zm-5.7-4.18a3.6,3.6,0,0,1,3.7,3.309h-7.4A3.6,3.6,0,0,1,211.678-4.38Zm19.2,10.058c4.027,0,5.9-2,5.9-4.332,0-5.595-9.231-3.266-9.231-6.988,0-1.328,1.11-2.416,3.7-2.416a7.87,7.87,0,0,1,4.18,1.241l.718-1.742a8.966,8.966,0,0,0-4.9-1.35c-4.006,0-5.834,2-5.834,4.354,0,5.66,9.231,3.309,9.231,7.032,0,1.328-1.132,2.351-3.766,2.351a7.843,7.843,0,0,1-5.029-1.763l-.805,1.7A9.046,9.046,0,0,0,230.88,5.678ZM240.7-8.255a1.368,1.368,0,0,0,1.415-1.393,1.354,1.354,0,0,0-1.415-1.328A1.376,1.376,0,0,0,239.283-9.6,1.358,1.358,0,0,0,240.7-8.255ZM239.653,5.5h2.09V-6.035h-2.09ZM260.16-6.144a5.2,5.2,0,0,0-4.441,2.133,4.27,4.27,0,0,0-4.006-2.133,4.676,4.676,0,0,0-3.984,1.829v-1.72h-2V5.5h2.09V-.44c0-2.5,1.372-3.832,3.461-3.832,1.894,0,2.983,1.11,2.983,3.374V5.5h2.09V-.44c0-2.5,1.372-3.832,3.461-3.832,1.894,0,2.983,1.11,2.983,3.374V5.5h2.09v-6.64C264.885-4.533,262.969-6.144,260.16-6.144Zm14.695,0a4.914,4.914,0,0,0-4.115,1.938V-6.035h-2V9.727h2.09V3.762a4.928,4.928,0,0,0,4.027,1.872,5.606,5.606,0,0,0,5.834-5.9A5.6,5.6,0,0,0,274.855-6.144Zm-.174,9.949a3.816,3.816,0,0,1-3.875-4.071,3.81,3.81,0,0,1,3.875-4.049,3.814,3.814,0,0,1,3.9,4.049A3.82,3.82,0,0,1,274.681,3.805Zm8.9,1.7h2.09V-10.65h-2.09Zm16.5-5.7a5.563,5.563,0,0,0-5.7-5.943,5.651,5.651,0,0,0-5.791,5.878c0,3.44,2.482,5.9,6.2,5.9a5.791,5.791,0,0,0,4.55-1.872l-1.154-1.35a4.308,4.308,0,0,1-3.331,1.393,3.908,3.908,0,0,1-4.18-3.374h9.361C300.065.235,300.087-.026,300.087-.2Zm-5.7-4.18a3.6,3.6,0,0,1,3.7,3.309h-7.4A3.6,3.6,0,0,1,294.383-4.38Z" transform="translate(97.073 43.625)"/>
  </g>
</svg>
