<svg xmlns="http://www.w3.org/2000/svg" width="86" height="86" viewBox="0 0 86 86" fill="none">
  <g transform="translate(0 0)">
    <path d="M15.158,0H70.842A15.158,15.158,0,0,1,86,15.158V70.842A15.158,15.158,0,0,1,70.842,86H15.158A15.158,15.158,0,0,1,0,70.842V15.158A15.158,15.158,0,0,1,15.158,0Z" fill="#000"/>
    <path d="M33.646-174.174a7.019,7.019,0,0,0-5.675,2.351v-2.082h-5v24.58h5.238v-8.428a7.013,7.013,0,0,0,5.44,2.183c5.07,0,9-3.627,9-9.3S38.717-174.174,33.646-174.174Zm-.906,14.3c-2.619,0-4.6-1.88-4.6-5s1.981-5,4.6-5,4.6,1.88,4.6,5S35.359-159.869,32.74-159.869ZM59.1-173.905v8.932c0,3.324-1.746,4.869-4.164,4.869-2.317,0-3.66-1.343-3.66-4.365v-9.436H46.037V-163.7c0,5.574,3.189,8.126,7.723,8.126a7.309,7.309,0,0,0,5.608-2.418v2.149h4.97v-18.065Zm23.438,0v2.082a6.949,6.949,0,0,0-5.641-2.351c-5.1,0-9.033,3.627-9.033,9.3s3.929,9.3,9.033,9.3a6.941,6.941,0,0,0,5.406-2.183v8.428H87.54v-24.58ZM77.8-159.869c-2.619,0-4.634-1.88-4.634-5s2.015-5,4.634-5c2.586,0,4.6,1.88,4.6,5S80.388-159.869,77.8-159.869Z" transform="translate(-12.254 202.645)" fill="#fff"/>
    <path d="M7.314-71.9a3.641,3.641,0,0,0-2.259.7l.413.743A2.765,2.765,0,0,1,7.2-71.045c.98,0,1.465.485,1.465,1.32v.2H7.1c-1.629,0-2.2.723-2.2,1.6,0,.949.784,1.609,2.022,1.609A2.03,2.03,0,0,0,8.717-67.1v.722h.939v-3.3C9.656-71.179,8.81-71.9,7.314-71.9Zm-.227,4.817c-.753,0-1.207-.34-1.207-.887,0-.464.279-.846,1.259-.846H8.665v.763A1.585,1.585,0,0,1,7.087-67.084Zm4.9-5.818a.648.648,0,0,0,.477-.186.648.648,0,0,0,.193-.474.642.642,0,0,0-.2-.456.642.642,0,0,0-.468-.173.652.652,0,0,0-.472.184.652.652,0,0,0-.2.466.644.644,0,0,0,.2.462A.644.644,0,0,0,11.987-72.9Zm-.5,6.52h.99V-71.85h-.99ZM24.531-71.85,22.9-67.476l-1.62-4.374h-.836L18.8-67.5,17.207-71.85h-.938L18.3-66.382h.949l1.6-4.147,1.578,4.147h.949l2.042-5.467Zm4.074,5.529a2.72,2.72,0,0,0,2.837-2.8A2.712,2.712,0,0,0,28.605-71.9a2.72,2.72,0,0,0-2.847,2.785A2.729,2.729,0,0,0,28.605-66.32Zm0-.867a1.81,1.81,0,0,1-1.847-1.929,1.8,1.8,0,0,1,1.847-1.919,1.794,1.794,0,0,1,1.836,1.919A1.8,1.8,0,0,1,28.605-67.187Zm5.158-3.745v-.918h-.949v5.467h.991v-2.723a1.631,1.631,0,0,1,1.723-1.847,1.748,1.748,0,0,1,.227.011v-.96a2.088,2.088,0,0,0-1.992.97Zm7.387,4.549h1.217L39.84-69.591l2.3-2.259h-1.2l-2.981,2.723v-4.91h-.99v7.654h.99v-1.5L39.1-68.931Zm2.321-5.952v.485h-.929v.815h.928v4.653h.99v-4.653h1.568v-.815H44.44v-.475c0-.629.3-.959.887-.959a1.282,1.282,0,0,1,.763.258l.3-.753a1.847,1.847,0,0,0-1.114-.32A1.644,1.644,0,0,0,43.471-72.335Zm3.5-1.7v7.654h.99v-7.654Zm5.22,7.716a2.72,2.72,0,0,0,2.837-2.8A2.712,2.712,0,0,0,52.188-71.9a2.721,2.721,0,0,0-2.847,2.785A2.729,2.729,0,0,0,52.188-66.32Zm0-.867a1.81,1.81,0,0,1-1.847-1.929,1.8,1.8,0,0,1,1.847-1.919,1.794,1.794,0,0,1,1.836,1.919A1.8,1.8,0,0,1,52.188-67.187Zm11.44-4.663L62-67.476l-1.62-4.374h-.836L57.892-67.5,56.3-71.85h-.939L57.4-66.382h.949l1.6-4.147,1.578,4.147h.949l2.042-5.467Zm3.384,5.53c1.455,0,2.362-.629,2.362-1.62,0-2.125-3.466-1.073-3.466-2.362,0-.433.423-.753,1.289-.753a2.855,2.855,0,0,1,1.578.433l.423-.784a3.978,3.978,0,0,0-1.991-.495c-1.4,0-2.28.66-2.28,1.64,0,2.177,3.456,1.114,3.456,2.342,0,.464-.382.743-1.3.743a3.513,3.513,0,0,1-1.919-.567l-.412.784A3.944,3.944,0,0,0,67.011-66.32Z" transform="translate(6.089 128.803)" fill="#fff"/>
  </g>
</svg>
